<svg width="16" height="15" viewBox="0 0 16 15" fill="none" xmlns="http://www.w3.org/2000/svg">
<path d="M8 14.8818C7.88951 14.8814 7.78224 14.8445 7.69495 14.7767C4.9145 12.6153 2.9992 10.754 1.65898 8.9178C-0.0512954 6.57123 -0.441358 4.40478 0.498793 2.4785C1.1689 1.10258 3.09421 -0.0231696 5.34457 0.632268C6.41752 0.942344 7.35364 1.60731 8 2.51853C8.64636 1.60731 9.58248 0.942344 10.6554 0.632268C12.9008 -0.0131629 14.8311 1.10258 15.5012 2.4785C16.4414 4.40478 16.0513 6.57123 14.341 8.9178C13.0008 10.754 11.0855 12.6153 8.30505 14.7767C8.21776 14.8445 8.11049 14.8814 8 14.8818ZM4.06437 1.44781C3.52891 1.42696 2.99788 1.55241 2.52829 1.81068C2.0587 2.06895 1.66828 2.4503 1.39894 2.91379C0.623813 4.50485 0.973869 6.27603 2.46911 8.3224C4.05815 10.3731 5.91887 12.1977 8 13.746C10.0808 12.1992 11.9415 10.3763 13.5309 8.3274C15.0311 6.27603 15.3762 4.50485 14.6011 2.91879C14.101 1.91813 12.6007 1.12259 10.9305 1.59291C10.3949 1.75126 9.89841 2.02005 9.47294 2.38197C9.04747 2.74389 8.70245 3.19093 8.46007 3.69431C8.4224 3.78608 8.3583 3.86457 8.27594 3.9198C8.19357 3.97504 8.09666 4.00453 7.9975 4.00453C7.89834 4.00453 7.80142 3.97504 7.71906 3.9198C7.63669 3.86457 7.5726 3.78608 7.53493 3.69431C7.29438 3.18967 6.94994 2.74159 6.52421 2.37944C6.09847 2.0173 5.60104 1.74926 5.06453 1.59291C4.73946 1.49845 4.40286 1.44961 4.06437 1.44781Z" fill="url(#paint0_linear_111_746)"/>
<defs>
<linearGradient id="paint0_linear_111_746" x1="-3.45946" y1="-8.58531" x2="19.9105" y2="-2.85312" gradientUnits="userSpaceOnUse">
<stop stop-color="#976464"/>
<stop offset="1" stop-color="#CFA5A5"/>
</linearGradient>
</defs>
</svg>
